<svg width="280" height="300" viewBox="0 0 280 300" xmlns="http://www.w3.org/2000/svg">
  <defs>
    <linearGradient id="g1" x1="0%" y1="0%" x2="100%" y2="100%">
      <stop offset="0%" style="stop-color:#00D8FF"/>
      <stop offset="100%" style="stop-color:#0066FF"/>
    </linearGradient>
    <linearGradient id="g2" x1="0%" y1="0%" x2="100%" y2="100%">
      <stop offset="0%" style="stop-color:#0051D8"/>
      <stop offset="100%" style="stop-color:#002966"/>
    </linearGradient>
    <linearGradient id="g3" x1="0%" y1="0%" x2="100%" y2="100%">
      <stop offset="0%" style="stop-color:#007ACC"/>
      <stop offset="100%" style="stop-color:#003D6B"/>
    </linearGradient>
    <linearGradient id="g4" x1="0%" y1="0%" x2="100%" y2="100%">
      <stop offset="0%" style="stop-color:#FFD700"/>
      <stop offset="100%" style="stop-color:#B8860B"/>
    </linearGradient>
    <linearGradient id="g5" x1="0%" y1="0%" x2="100%" y2="100%">
      <stop offset="0%" style="stop-color:#00CED1"/>
      <stop offset="100%" style="stop-color:#006666"/>
    </linearGradient>
  </defs>

  <rect width="280" height="300" fill="#0d1117" rx="8"/>

  <text x="140" y="30" font-family="monospace" font-size="16" font-weight="bold" fill="#00FF41" text-anchor="middle">LANGUAGES</text>
  <text x="140" y="48" font-family="monospace" font-size="10" fill="#00FF41" opacity="0.5" text-anchor="middle">SYSTEM.COMPILER.LANG</text>

  <g transform="translate(140, 150)">
    <path d="M 0 0 L 0 -80 A 80 80 0 0 1 64.7 -47.0 Z" fill="url(#g1)" stroke="#00FF41" stroke-width="1"/>
    <path d="M 0 0 L 64.7 -47.0 A 80 80 0 0 1 -47.0 64.7 Z" fill="url(#g2)" stroke="#00FF41" stroke-width="1"/>
    <path d="M 0 0 L -47.0 64.7 A 80 80 0 0 1 -76.1 -24.7 Z" fill="url(#g3)" stroke="#00FF41" stroke-width="1"/>
    <path d="M 0 0 L -76.1 -24.7 A 80 80 0 0 1 -39.2 -69.6 Z" fill="url(#g4)" stroke="#FFD700" stroke-width="1"/>
    <path d="M 0 0 L -39.2 -69.6 A 80 80 0 0 1 0 -80 Z" fill="url(#g5)" stroke="#00CED1" stroke-width="1"/>
    <circle cx="0" cy="0" r="35" fill="#0d1117" stroke="#00FF41" stroke-width="2"/>
    <text x="0" y="5" font-family="monospace" font-size="12" font-weight="bold" fill="#00FF41" text-anchor="middle">DEV</text>
  </g>

  <g font-family="monospace" font-size="9">
    <rect x="25" y="245" width="10" height="10" fill="url(#g1)" stroke="#00FF41" stroke-width="0.5"/>
    <text x="40" y="254" fill="#00FF41">Python 35%</text>
    <rect x="115" y="245" width="10" height="10" fill="url(#g2)" stroke="#00FF41" stroke-width="0.5"/>
    <text x="130" y="254" fill="#00FF41">C++ 25%</text>
    <rect x="25" y="262" width="10" height="10" fill="url(#g3)" stroke="#00FF41" stroke-width="0.5"/>
    <text x="40" y="271" fill="#00FF41">TS 20%</text>
    <rect x="115" y="262" width="10" height="10" fill="url(#g4)" stroke="#FFD700" stroke-width="0.5"/>
    <text x="130" y="271" fill="#FFD700">JS 12%</text>
    <rect x="25" y="279" width="10" height="10" fill="url(#g5)" stroke="#00CED1" stroke-width="0.5"/>
    <text x="40" y="288" fill="#00CED1">SQL 8%</text>
  </g>
</svg>
