<svg width="280" height="300" viewBox="0 0 280 300" xmlns="http://www.w3.org/2000/svg">
  <defs>
    <linearGradient id="t1" x1="0%" y1="0%" x2="100%" y2="100%">
      <stop offset="0%" style="stop-color:#FF6B35"/>
      <stop offset="100%" style="stop-color:#CC3300"/>
    </linearGradient>
    <linearGradient id="t2" x1="0%" y1="0%" x2="100%" y2="100%">
      <stop offset="0%" style="stop-color:#FFCC00"/>
      <stop offset="100%" style="stop-color:#FF9900"/>
    </linearGradient>
    <linearGradient id="t3" x1="0%" y1="0%" x2="100%" y2="100%">
      <stop offset="0%" style="stop-color:#00FF41"/>
      <stop offset="100%" style="stop-color:#00AA2A"/>
    </linearGradient>
  </defs>

  <rect width="280" height="300" fill="#0d1117" rx="8"/>

  <text x="140" y="30" font-family="monospace" font-size="16" font-weight="bold" fill="#E94560" text-anchor="middle">TOOLS</text>
  <text x="140" y="48" font-family="monospace" font-size="10" fill="#E94560" opacity="0.5" text-anchor="middle">SYSTEM.TOOLKIT.V1</text>

  <g transform="translate(140, 150)">
    <path d="M 0 0 L 0 -80 A 80 80 0 0 1 47.0 -64.7 Z" fill="url(#t1)" stroke="#E94560" stroke-width="1"/>
    <path d="M 0 0 L 47.0 -64.7 A 80 80 0 0 1 -80 0 Z" fill="url(#t2)" stroke="#E94560" stroke-width="1"/>
    <path d="M 0 0 L -80 0 A 80 80 0 0 1 0 -80 Z" fill="url(#t3)" stroke="#00FF41" stroke-width="1"/>
    <circle cx="0" cy="0" r="35" fill="#0d1117" stroke="#E94560" stroke-width="2"/>
    <text x="0" y="5" font-family="monospace" font-size="12" font-weight="bold" fill="#E94560" text-anchor="middle">KIT</text>
  </g>

  <g font-family="monospace" font-size="9">
    <rect x="60" y="245" width="10" height="10" fill="url(#t1)" stroke="#E94560" stroke-width="0.5"/>
    <text x="75" y="254" fill="#FF6B35">Git 40%</text>
    <rect x="60" y="262" width="10" height="10" fill="url(#t2)" stroke="#E94560" stroke-width="0.5"/>
    <text x="75" y="271" fill="#FFCC00">Linux 35%</text>
    <rect x="60" y="279" width="10" height="10" fill="url(#t3)" stroke="#00FF41" stroke-width="0.5"/>
    <text x="75" y="288" fill="#00FF41">Vim 25%</text>
  </g>
</svg>
